<?xml version="1.0" encoding="utf-8"?>
<!-- Generator: Adobe Illustrator 16.0.3, SVG Export Plug-In . SVG Version: 6.00 Build 0)  -->
<!DOCTYPE svg PUBLIC "-//W3C//DTD SVG 1.1//EN" "http://www.w3.org/Graphics/SVG/1.1/DTD/svg11.dtd">
<svg version="1.1" id="Layer_1" xmlns="http://www.w3.org/2000/svg" xmlns:xlink="http://www.w3.org/1999/xlink" x="0px" y="0px"
	 width="500px" height="500px" viewBox="0 0 500 500" enable-background="new 0 0 500 500" xml:space="preserve">
<polygon fill="#BA9BC9" points="478.272,475.772 250,374.637 22.591,475.772 22.591,0 478.272,0 "/>
<polygon fill="#725C7F" points="478.272,475.772 250,374.637 250,0 478.272,0 "/>
<g>
	<path fill="#FFFFFF" d="M145.098,141.625c0-3.871,0.878-7.246,2.637-10.127c1.758-2.88,4.229-5.334,7.415-7.361
		c3.184-2.027,7.006-3.698,11.465-5.012c4.459-1.313,9.364-2.339,14.714-3.076c5.351-0.738,11.083-1.234,17.199-1.49
		c6.115-0.255,12.434-0.384,18.957-0.384c8.763,0,17.941,0.298,27.533,0.896c9.592,0.597,19.6,1.687,30.023,3.265
		c2.416,0.427,4.115,1.194,5.098,2.304c0.982,1.109,1.473,2.347,1.473,3.712c0,1.018-0.227,2.01-0.68,2.976
		c-0.453,0.966-1.057,1.856-1.813,2.67c-0.756,0.814-1.637,1.462-2.643,1.945c-1.008,0.483-2.066,0.725-3.174,0.725
		c-3.877,0-7.918-0.229-12.121-0.688c-4.205-0.458-8.586-0.974-13.143-1.547c-4.558-0.573-9.252-1.146-14.086-1.72
		c-4.834-0.572-9.819-1.002-14.955-1.29c-0.906,5.982-2.198,11.911-3.871,17.787c-1.675,5.876-3.391,11.896-5.146,18.061
		c-1.756,6.164-3.51,12.318-5.26,18.459c-1.75,6.143-3.427,12.03-5.031,17.661c-1.605,5.63-3.085,10.828-4.441,15.59
		c-1.357,4.763-2.523,8.858-3.499,12.285c-0.419,1.536-1.06,2.947-1.924,4.235c-0.864,1.287-1.832,2.404-2.904,3.354
		c-1.074,0.948-2.186,1.682-3.337,2.202c-1.152,0.519-2.225,0.779-3.218,0.779c-2.984,0-5.439-0.621-7.37-1.863
		c-1.931-1.242-2.896-3.244-2.896-6.004c0-0.874,0.151-1.84,0.453-2.898c1.107-4.062,2.215-8.124,3.324-12.187
		c1.107-4.062,2.267-8.313,3.479-12.755s2.75-9.123,4.613-14.046c1.862-4.923,3.927-10.341,6.193-16.253s4.721-12.54,7.364-19.885
		s5.5-15.52,8.573-24.523c-2.67,0.193-5.376,0.41-8.12,0.65c-2.745,0.241-5.414,0.566-8.006,0.976
		c-2.594,0.41-5.052,0.927-7.377,1.554c-2.325,0.626-4.449,1.421-6.372,2.384c-1.923,0.964-3.443,2.12-4.562,3.468
		c-1.119,1.349-1.678,2.938-1.678,4.769c0,0.097-0.06,0.626-0.178,1.589c-0.119,0.964-0.535,2.011-1.248,3.143
		c-0.712,1.132-1.842,2.168-3.387,3.107c-1.545,0.939-3.744,1.408-6.595,1.408c-2.852,0-5.062-0.46-6.63-1.382
		c-1.569-0.921-2.709-1.936-3.422-3.042C145.668,144.76,145.193,143.285,145.098,141.625z"/>
	<path fill="#FFFFFF" d="M271.082,180.217c1.461,2.668,2.557,5.486,3.287,8.453c0.729,2.968,1.094,6.314,1.094,10.041
		c0,2.715-0.328,5.452-0.98,8.212c-0.656,2.76-1.6,5.429-2.834,8.005c-1.234,2.577-2.744,4.992-4.531,7.246
		s-3.826,4.209-6.117,5.865c-2.293,1.656-4.797,2.968-7.516,3.934c-2.719,0.966-5.616,1.449-8.687,1.449
		c-4.432,0-8.221-0.885-11.367-2.657c-3.147-1.771-5.729-4.082-7.742-6.935c-2.015-2.853-3.487-6.073-4.418-9.662
		c-0.933-3.588-1.397-7.222-1.397-10.903c0-6.073,0.831-11.306,2.493-15.7c1.662-4.393,4.041-8.212,7.137-11.456
		c3.097-3.243,6.885-5.796,11.367-7.66c4.481-1.863,9.517-2.795,15.106-2.795c4.783,0,9.264,0.679,13.445,2.036
		c4.178,1.357,8.094,3.174,11.744,5.452s7.049,5.141,10.197,8.592c3.146,3.45,6.08,6.74,8.799,9.868l-1.436,9.73
		c-1.359-1.656-3.197-3.451-5.514-5.383s-4.771-4.072-7.363-6.418c-2.594-2.346-5.15-4.335-7.666-5.969
		c-2.52-1.632-4.684-3.002-6.496-4.106L271.082,180.217z M247.744,220.172c1.711,0,3.374-0.793,4.985-2.381
		c1.611-1.587,3.021-3.588,4.23-6.003c1.207-2.416,2.178-5.336,2.908-8.764c0.729-3.427,1.094-6.475,1.094-9.144
		c0-2.116-0.176-4.083-0.527-5.9c-0.354-1.817-0.883-3.392-1.586-4.727c-0.707-1.334-1.613-2.392-2.721-3.174
		c-1.107-0.782-2.441-1.173-4.002-1.173c-2.066,0-4.03,0.806-5.892,2.416c-1.863,1.611-3.5,3.669-4.909,6.176
		c-1.411,2.508-2.519,5.279-3.324,8.315c-0.806,3.037-1.208,6.464-1.208,10.282c0,1.933,0.201,3.75,0.604,5.452
		c0.402,1.703,1.031,3.187,1.888,4.451c0.855,1.266,1.989,2.277,3.399,3.036C244.092,219.793,245.78,220.172,247.744,220.172z"/>
	<path fill="#FFFFFF" d="M321.432,220.172c5.066,0,9.688-0.445,13.861-1.336c4.172-0.891,7.959-2.093,11.359-3.607
		c3.398-1.514,6.469-3.285,9.213-5.312c2.744-2.026,5.225-4.198,7.441-6.514l0.83,15.299c-1.611,1.914-3.563,3.767-5.854,5.558
		c-2.293,1.791-4.797,3.361-7.516,4.71c-2.719,1.35-5.578,2.43-8.572,3.238c-2.996,0.81-5.955,1.214-8.875,1.214
		c-0.352,0-0.791-0.05-1.316-0.148c-0.527-0.1-1.443-0.273-2.746-0.521c-1.307-0.248-3.174-0.582-5.607-1.005
		c-2.432-0.421-5.73-0.931-9.893-1.525v1.247c0,8.407-0.793,16.042-2.375,22.902c-1.58,6.859-3.693,12.715-6.34,17.566
		c-2.646,4.848-5.68,8.592-9.104,11.225c-3.422,2.633-6.975,3.949-10.658,3.949c-2.869,0-5.26-0.648-7.174-1.945
		s-3.438-3.047-4.57-5.244c-1.133-2.201-1.938-4.771-2.416-7.713s-0.719-6.055-0.719-9.344c0-1.91,0.328-4.066,0.982-6.465
		c0.654-2.4,1.537-4.916,2.643-7.548c1.109-2.634,2.355-5.313,3.74-8.038c1.385-2.727,2.805-5.372,4.268-7.934
		c3.422-5.964,7.326-12.114,11.707-18.453c0.561-3.474,1.133-7.036,1.721-10.688c0.586-3.652,1.33-7.236,2.234-10.753
		c0.904-3.516,2.297-7.204,4.182-11.063c1.885-3.859,3.9-6.954,6.043-9.283s4.711-4.179,7.707-5.55
		c2.994-1.37,6.609-2.055,10.844-2.055c3.068,0,5.934,0.383,8.6,1.146c2.666,0.765,5.004,2.003,7.018,3.717
		c2.01,1.714,3.596,3.926,4.752,6.635c1.156,2.709,1.734,6.033,1.734,9.97c0,4.187-0.502,7.46-1.508,9.821
		c-1.508,3.52-3.455,6.57-5.844,9.153s-5.229,4.999-8.52,7.248c-3.293,2.249-7.201,4.265-11.725,6.046L321.432,220.172z
		 M284.828,263.689c0,0.365,0.088,0.961,0.266,1.785c0.176,0.822,0.465,1.646,0.867,2.471c0.402,0.822,0.932,1.555,1.588,2.195
		c0.652,0.641,1.459,0.961,2.416,0.961c0.855,0,1.561-0.424,2.115-1.27c0.553-0.848,1.006-1.98,1.359-3.398
		c0.352-1.418,0.604-3.02,0.756-4.803c0.15-1.785,0.268-3.615,0.355-5.49c0.086-1.877,0.143-3.707,0.17-5.491
		c0.025-1.786,0.092-3.387,0.199-4.805c0.158-2.472,0.277-4.564,0.357-6.28c0.08-1.717,0.146-3.146,0.201-4.289
		c0.049-1.285,0.1-2.399,0.15-3.343c-0.957,1.515-1.887,3.271-2.793,5.27c-0.908,1.997-1.764,4.075-2.568,6.234
		c-0.807,2.158-1.537,4.316-2.191,6.476c-0.654,2.158-1.221,4.167-1.699,6.027s-0.857,3.467-1.133,4.822
		C284.967,262.115,284.828,263.092,284.828,263.689z M311.857,213.425c3.021-1.336,5.643-2.828,7.859-4.476
		c2.115-1.648,3.979-3.408,5.592-5.278c0.654-0.088,2.217-2.137,4.686-6.146c1.66-3.429,2.719-6.057,3.174-7.883
		c0.252-0.979,0.416-2.126,0.49-3.44c0.076-1.313-0.074-2.55-0.449-3.708c-0.377-1.158-1.029-2.149-1.957-2.973
		c-0.93-0.824-2.221-1.236-3.877-1.236c-1.863,0-3.5,0.458-4.912,1.37c-1.412,0.913-2.633,2.149-3.666,3.708
		c-1.031,1.559-1.889,3.407-2.568,5.544c-0.682,2.138-1.488,4.777-2.42,7.917c-0.932,3.14-1.49,6.035-1.674,8.686
		C311.949,208.159,311.857,210.797,311.857,213.425z"/>
</g>
</svg>
