<?xml version="1.0" encoding="utf-8"?>
<!-- Generator: Adobe Illustrator 16.0.3, SVG Export Plug-In . SVG Version: 6.00 Build 0)  -->
<!DOCTYPE svg PUBLIC "-//W3C//DTD SVG 1.1//EN" "http://www.w3.org/Graphics/SVG/1.1/DTD/svg11.dtd">
<svg version="1.1" id="Layer_1" xmlns="http://www.w3.org/2000/svg" xmlns:xlink="http://www.w3.org/1999/xlink" x="0px" y="0px"
	 width="100px" height="100px" viewBox="0 0 100 100" enable-background="new 0 0 100 100" xml:space="preserve">
<g>
	<path d="M79.628,6.489H20.372c-2.108,0-3.823,1.715-3.823,3.823V53.32c0,2.106,1.715,3.822,3.823,3.822h17.326l-2.235,3.377
		c-0.959,1.446-1.096,3.123-0.365,4.484s2.205,2.174,3.943,2.174h21.664c1.736,0,3.212-0.812,3.941-2.174
		c0.73-1.359,0.595-3.038-0.365-4.486l-2.234-3.375h17.581c2.108,0,3.823-1.716,3.823-3.822V10.312
		C83.451,8.204,81.736,6.489,79.628,6.489z M61.73,62.208c0.697,1.052,0.234,1.912-1.025,1.912H39.041
		c-1.262,0-1.724-0.86-1.027-1.912l3.352-5.063h17.013L61.73,62.208z M79.628,54.085H20.372c-0.415,0-0.765-0.351-0.765-0.765v-8.41
		h60.786v8.41C80.393,53.734,80.042,54.085,79.628,54.085z"/>
	<path d="M63.973,70.176H20.372c-2.108,0-3.823,1.715-3.823,3.822v15.689c0,2.107,1.715,3.822,3.823,3.822h43.601
		c2.107,0,3.823-1.715,3.823-3.822V73.998C67.796,71.891,66.08,70.176,63.973,70.176z M64.736,89.688
		c0,0.416-0.35,0.766-0.764,0.766H20.372c-0.415,0-0.765-0.35-0.765-0.766V73.998c0-0.414,0.35-0.766,0.765-0.766h43.601
		c0.414,0,0.766,0.352,0.766,0.766v15.689H64.736z"/>
	<path d="M79.628,70.176h-5.032c-2.109,0-3.824,1.715-3.824,3.822v8.936c0,2.108,1.715,3.823,3.824,3.823h5.032
		c2.108,0,3.823-1.715,3.823-3.823v-8.936C83.451,71.891,81.736,70.176,79.628,70.176z M80.393,82.934
		c0,0.416-0.351,0.766-0.765,0.766h-5.032c-0.414,0-0.766-0.35-0.766-0.766v-8.936c0-0.414,0.352-0.766,0.766-0.766h5.032
		c0.414,0,0.765,0.352,0.765,0.766V82.934z"/>
	<circle cx="50" cy="49.314" r="2.485"/>
	<circle cx="24.779" cy="78.155" r="2.485"/>
	<circle cx="31.736" cy="78.155" r="2.485"/>
	<circle cx="38.694" cy="78.155" r="2.485"/>
	<circle cx="45.65" cy="78.155" r="2.485"/>
	<circle cx="52.607" cy="78.155" r="2.485"/>
	<circle cx="59.564" cy="78.155" r="2.485"/>
	<circle cx="24.779" cy="85.037" r="2.485"/>
	<path d="M45.65,82.552H31.736c-1.372,0-2.485,1.112-2.485,2.484c0,1.373,1.113,2.485,2.485,2.485H45.65
		c1.372,0,2.485-1.112,2.485-2.485C48.135,83.664,47.022,82.552,45.65,82.552z"/>
	<circle cx="52.607" cy="85.037" r="2.485"/>
	<circle cx="59.564" cy="85.037" r="2.485"/>
</g>
</svg>
