<?xml version="1.0" encoding="utf-8"?>
<!-- Generator: Adobe Illustrator 16.0.3, SVG Export Plug-In . SVG Version: 6.00 Build 0)  -->
<!DOCTYPE svg PUBLIC "-//W3C//DTD SVG 1.1//EN" "http://www.w3.org/Graphics/SVG/1.1/DTD/svg11.dtd">
<svg version="1.1" id="Layer_1" xmlns="http://www.w3.org/2000/svg" xmlns:xlink="http://www.w3.org/1999/xlink" x="0px" y="0px"
	 width="500px" height="500px" viewBox="0 0 500 500" enable-background="new 0 0 500 500" xml:space="preserve">
<polygon fill="#E87D52" points="84.048,299.23 84.048,322.498 60.074,309.898 61.105,288.146 "/>
<polygon fill="#E87D52" points="415.761,203.137 415.761,179.871 439.734,192.471 438.702,214.22 "/>
<path fill="#F79663" stroke="#FFFFFF" stroke-miterlimit="10" d="M60.594,309.182l23.454,12.602H22.651l22.166-64.52
	c0,0-16.041-47.833-16.041-49s31.818-2.042,31.818-2.042V309.182z"/>
<path fill="#F79663" stroke="#FFFFFF" stroke-miterlimit="10" d="M438.073,190.954l-23.454-12.599h61.397l-22.169,64.516
	c0,0,16.044,47.833,16.044,49c0,1.168-31.818,2.043-31.818,2.043V190.954z"/>
<g>
	<polygon fill="#F68C59" points="431.337,249.963 415.646,273.886 424.01,301.249 402.196,319.765 402.46,348.374 376.309,359.979 
		368.523,387.511 340.166,391.316 324.96,415.555 296.686,411.2 275.234,430.133 249.336,417.963 223.437,430.133 201.987,411.2 
		173.71,415.555 158.504,391.316 130.147,387.511 122.364,359.979 96.21,348.374 96.475,319.766 74.663,301.249 83.024,273.887 
		67.335,249.963 83.025,226.04 74.663,198.676 96.476,180.161 96.211,151.552 122.365,139.948 130.148,112.415 158.505,108.609 
		173.711,84.372 201.988,88.726 223.437,69.792 249.336,81.963 275.234,69.792 296.686,88.726 324.962,84.373 340.167,108.61 
		368.523,112.416 376.309,139.948 402.461,151.553 402.196,180.162 424.008,198.677 415.646,226.04 	"/>
</g>
<circle fill="none" stroke="#E87D52" stroke-miterlimit="10" cx="249.336" cy="250.54" r="102.376"/>
<path fill="none" stroke="#E87D52" stroke-miterlimit="10" d="M403.949,250.912c0,85.534-69.338,154.875-154.876,154.875
	c-85.533,0-154.874-69.341-154.874-154.875c0-85.535,69.341-154.876,154.874-154.876
	C334.611,96.036,403.949,165.377,403.949,250.912z"/>
<path fill="none" stroke="#FFFFFF" stroke-miterlimit="10" d="M97.494,218.873c17.62-83.701,99.759-137.27,183.456-119.65"/>
<rect x="60.074" y="190.954" fill="#F79663" stroke="#FFFFFF" stroke-miterlimit="10" width="377.999" height="117.688"/>
<g>
	<path fill="#FFFFFF" d="M148.15,289.607c8.714-0.42,10.5-2.729,13.125-17.433l10.08-58.062
		c-28.664,2.415-44.938,12.705-44.938,28.874c0,3.78,1.47,6.93,3.78,9.24c5.985,5.773,16.904,5.354,17.009,5.25v2.205
		c-6.825,0-13.754-1.365-18.374-5.882c-2.94-2.729-4.41-6.404-4.41-10.813c0-20.054,21.839-31.394,60.057-31.394
		c25.304,0,32.864,7.665,32.864,18.374c0,11.13-9.029,19.109-20.789,23.204c18.269,37.903,19.634,39.794,26.879,39.794
		c4.305,0,8.084-2.835,9.45-7.563h2.625c-1.995,6.512-6.51,10.922-16.484,10.922c-11.445,0-18.06-5.564-22.784-15.854
		l-11.339-24.567c-2.1,0.211-4.095,0.42-6.195,0.42c-0.735,3.779-1.26,7.561-1.995,11.022c-2.94,15.959-16.799,24.255-28.559,24.255
		v-1.994h-0.002V289.607z M185.424,213.591l-6.3,40.423c20.159-0.521,35.488-11.549,35.488-24.042
		C214.612,219.68,205.268,213.801,185.424,213.591z"/>
	<path fill="#FFFFFF" d="M246.536,234.695c10.92,0,16.483,5.985,16.483,15.119c0,15.331-8.188,26.668-24.673,26.668
		c-11.025,0-16.484-5.984-16.484-15.119C221.862,248.659,226.377,234.695,246.536,234.695z M251.156,245.509
		c0-5.67-1.155-8.82-4.725-8.82c-5.88,0-12.705,10.71-12.705,28.979c0,6.614,2.31,8.398,4.83,8.398
		C245.066,274.068,251.156,261.259,251.156,245.509z"/>
	<path fill="#FFFFFF" d="M298.825,240.575c1.47,0,1.68,0.21,2.415,0.42c-1.26-2.31-4.305-3.675-7.35-3.675
		c-6.513,0-13.968,7.875-13.968,27.508c0,6.72,3.57,9.24,7.665,9.24c11.129,0,14.909-12.18,14.909-12.285l1.892,0.841
		c0,0-2.834,13.858-19.109,13.858c-11.549,0-17.219-5.984-17.219-15.119c0-16.904,9.135-26.668,23.205-26.668
		c9.866,0,15.014,5.565,15.014,13.334c0,5.354-3.885,7.77-7.454,7.77c-4.2,0-7.56-3.359-7.56-7.56
		C291.266,244.04,294.625,240.575,298.825,240.575z"/>
	<path fill="#FFFFFF" d="M353.109,271.443l1.574,1.26c0,0-1.994,3.779-8.818,3.779c-17.534,0-10.709-19.528-20.055-21.209
		c-1.785,9.66-2.834,14.91-3.779,20.265h-12.494L321.4,209.6c-2.102,0.21-3.885,1.26-5.25,2.94l-1.574-1.26
		c1.994-2.415,4.726-3.78,7.875-3.78c6.51,0,10.08,3.36,10.08,9.239c0,0.84-0.105,1.785-0.211,2.729c0,0-2.414,13.334-5.25,28.769
		c3.466-8.61,10.396-13.544,19.005-13.544c6.51,0,9.135,3.675,9.135,7.875c0,4.2-2.938,7.35-7.14,7.35
		c-4.62,0-6.721-2.939-6.721-6.405c0-4.515,2.101-6.089,2.521-6.404c-7.244,0.84-12.494,6.72-16.063,14.911
		c0.734-0.104,1.471-0.211,2.521-0.211c20.158,0,10.186,21.631,19.004,21.631C352.061,273.438,353.109,271.443,353.109,271.443z"/>
</g>
<line fill="none" stroke="#DD7A53" stroke-miterlimit="10" x1="84.048" y1="308.642" x2="438.073" y2="308.642"/>
<line fill="none" stroke="#DD7A53" stroke-miterlimit="10" x1="438.073" y1="309.125" x2="438.073" y2="293.072"/>
<g>
	<g>
		<path fill="#FFFFFF" d="M153.479,163.083c6.207,2.921,9.238,4.49,15.135,7.825c-1.393,1.262-2.079,1.905-3.43,3.217
			c-5.532-2.952-8.364-4.342-14.146-6.942c-1.097,1.143-1.639,1.722-2.708,2.896c4.415,4.021,6.622,6.031,11.036,10.053
			c-1.285,1.411-1.915,2.13-3.154,3.59c-8.173-6.936-16.345-13.872-24.518-20.808c1.914-2.255,2.894-3.359,4.896-5.519
			c5.71-6.16,10.86-7.691,15.191-2.995C154.347,157.183,155.007,160.229,153.479,163.083z M139.117,159.736
			c-0.392,0.423-0.588,0.637-0.977,1.063c3.056,2.784,4.585,4.174,7.641,6.958c0.365-0.4,0.548-0.599,0.916-0.996
			c2.974-3.208,3.697-5.854,1.061-8.521C145.122,155.572,142.289,156.314,139.117,159.736z"/>
		<path fill="#FFFFFF" d="M171.522,140.736c2.612,3.866,3.917,5.798,6.53,9.665c3.617,5.353,3.911,10.048-1.37,14.153
			c-5.324,4.138-9.72,2.749-14.076-2.142c-3.103-3.484-4.654-5.227-7.757-8.71c-4.356-4.891-4.905-9.908,1.701-15.045
			C163.103,133.561,167.905,135.383,171.522,140.736z M158.276,149.237c3.567,4.296,5.352,6.445,8.919,10.741
			c2.201,2.65,4.311,3.825,7.173,1.6c2.862-2.225,2.239-4.556,0.213-7.342c-3.284-4.517-4.926-6.774-8.21-11.292
			c-2.026-2.787-4.129-3.938-7.509-1.311C155.482,144.26,156.075,146.586,158.276,149.237z"/>
		<path fill="#FFFFFF" d="M193.387,128.369c1.968,4.23,2.952,6.347,4.92,10.577c2.724,5.857,2.271,10.541-3.569,13.745
			c-5.888,3.23-9.989,1.147-13.514-4.373c-2.511-3.932-3.767-5.898-6.278-9.831c-3.525-5.521-3.294-10.545,4.014-14.554
			C186.208,119.957,190.662,122.512,193.387,128.369z M179.011,134.641c2.842,4.808,4.262,7.212,7.104,12.02
			c1.753,2.966,3.645,4.463,6.811,2.727c3.166-1.736,2.918-4.136,1.358-7.208c-2.528-4.979-3.791-7.471-6.319-12.45
			c-1.56-3.072-3.455-4.542-7.193-2.491C177.034,129.29,177.257,131.674,179.011,134.641z"/>
		<path fill="#FFFFFF" d="M201.576,121.213c3.678,9.459,5.517,14.189,9.195,23.649c-1.753,0.681-2.624,1.037-4.351,1.778
			c-4.229-9.849-8.45-19.701-12.678-29.551c2.952-1.266,4.443-1.865,7.455-2.99c5.608,8.417,8.263,12.705,13.261,21.416
			c-1.259-9.964-1.723-14.988-2.314-25.085c3.089-0.919,4.647-1.342,7.785-2.114c2.562,10.409,5.12,20.818,7.681,31.227
			c-1.836,0.452-2.75,0.693-4.565,1.207c-2.764-9.766-4.145-14.648-6.909-24.414c0.61,10.375,1.091,15.536,2.396,25.776
			c-1.346,0.432-2.015,0.656-3.348,1.122C210.057,134.273,207.333,129.864,201.576,121.213z"/>
		<path fill="#FFFFFF" d="M235.235,108.78c-2.756,0.421-4.024,1.996-3.637,4.15c0.353,1.961,1.862,3.256,3.5,4.009
			c2.995,1.377,4.459,2.102,7.322,3.617c2.932,1.572,5.705,4.229,6.041,8.324c0.39,4.757-2.727,7.716-7.666,8.426
			c-6.15,0.885-9.774-2.212-11.325-7.623c1.879-0.875,2.831-1.298,4.76-2.111c0.765,3.235,2.369,6.531,6.029,6.004
			c2.415-0.347,3.5-1.614,3.232-3.895c-0.336-2.869-2.48-4.135-4.542-5.198c-2.835-1.449-4.286-2.141-7.252-3.451
			c-2.542-1.091-4.807-3.201-5.527-6.534c-1.007-4.665,2.379-8.51,8.497-9.444c7.208-1.102,11.484,1.797,12.414,6.96
			c-2.208,0.642-3.302,0.98-5.463,1.696C241.023,110.708,239.26,108.166,235.235,108.78z"/>
	</g>
</g>
<g>
	<g>
		<path fill="#FFFFFF" d="M304.264,122.52c-2.763-1.193-4.162-1.75-6.998-2.782c-3.201,8.792-6.393,17.586-9.593,26.377
			c-1.771-0.644-2.661-0.945-4.467-1.506c2.778-8.934,5.551-17.869,8.33-26.803c-2.892-0.899-4.356-1.306-7.312-2.036
			c0.392-1.589,0.588-2.384,0.979-3.973c8.539,2.108,12.699,3.517,20.68,6.966C305.234,120.266,304.911,121.018,304.264,122.52z"/>
		<path fill="#FFFFFF" d="M306.277,138.004c-2.746,5.303-4.116,7.956-6.862,13.258c-1.663-0.86-2.504-1.271-4.208-2.054
			c4.475-9.74,8.947-19.48,13.422-29.221c2.255,1.036,3.37,1.582,5.569,2.721c-2.533,4.895-3.8,7.342-6.335,12.237
			c3.447,1.785,5.133,2.746,8.414,4.804c2.93-4.67,4.393-7.006,7.32-11.675c2.096,1.314,3.127,1.997,5.155,3.407
			c-6.112,8.802-12.229,17.605-18.344,26.409c-1.534-1.066-2.313-1.582-3.896-2.575c3.172-5.059,4.756-7.588,7.928-12.647
			C311.258,140.671,309.623,139.737,306.277,138.004z"/>
		<path fill="#FFFFFF" d="M316.122,162.168c-1.455-1.174-2.195-1.744-3.703-2.848c8.539-7.202,17.128-13.8,26.279-20.207
			c1.89,1.599,2.815,2.42,4.63,4.109c-5.276,9.845-10.805,19.168-16.93,28.508c-1.28-1.374-1.938-2.044-3.28-3.353
			c1.741-2.793,2.589-4.207,4.239-7.069c-1.842-1.734-2.787-2.575-4.729-4.196C319.986,159.095,318.686,160.106,316.122,162.168z
			 M336.462,146.292c-4.538,3.343-6.764,5.063-11.121,8.597c1.593,1.348,2.374,2.042,3.903,3.465
			C332.234,153.607,333.68,151.193,336.462,146.292z"/>
		<path fill="#FFFFFF" d="M358.439,166.876c-1.735-2.501-2.642-3.722-4.51-6.104c-7.355,5.78-14.713,11.561-22.066,17.341
			c-1.166-1.485-1.77-2.213-3-3.637c7.072-6.125,14.146-12.245,21.221-18.368c-1.975-2.282-2.994-3.393-5.094-5.547
			c1.172-1.142,1.757-1.712,2.929-2.854c6.065,6.225,8.867,9.609,13.882,16.836C360.457,165.478,359.783,165.944,358.439,166.876z"
			/>
	</g>
</g>
<g>
	<g>
		<path fill="#FFFFFF" d="M240.329,396.9c-8.906-0.016-11.057-5.32-10.569-12.208c0.259-3.659,0.388-5.487,0.649-9.146
			c0.492-6.894,2.839-11.458,9.977-11.445c6.693,0.01,9.088,3.911,9.505,10.356c-2.037,0.135-3.058,0.182-5.104,0.241
			c-0.115-3.914-0.329-6.823-4.41-6.831c-4.08-0.007-4.605,2.895-4.74,6.804c-0.158,4.592-0.241,6.89-0.398,11.479
			c-0.121,3.515,0.692,6.978,5.099,6.981c4.431,0.009,4.889-3.439,4.786-6.954c-0.014-0.46-0.019-0.687-0.032-1.146
			c2.191-0.063,3.286-0.118,5.472-0.259c0.029,0.456,0.045,0.688,0.071,1.146C251.05,392.294,248.632,396.914,240.329,396.9z"/>
		<path fill="#FFFFFF" d="M259.183,380.494c0.739,5.928,1.105,8.889,1.847,14.813c-2.327,0.291-3.493,0.418-5.834,0.625
			c-0.949-10.677-1.896-21.354-2.843-32.03c1.885-0.167,2.823-0.265,4.695-0.5c0.683,5.47,1.021,8.203,1.702,13.67
			c3.622-0.451,5.417-0.732,8.992-1.406c-1.021-5.418-1.53-8.125-2.551-13.543c1.847-0.349,2.77-0.54,4.605-0.954
			c2.354,10.456,4.716,20.911,7.074,31.368c-2.281,0.517-3.427,0.749-5.725,1.185c-1.106-5.869-1.66-8.8-2.768-14.67
			C264.726,379.743,262.885,380.032,259.183,380.494z"/>
		<path fill="#FFFFFF" d="M283.855,375.273c1.325,4.398,1.989,6.6,3.315,10.997c3.827-1.152,5.725-1.785,9.475-3.174
			c0.479,1.293,0.718,1.938,1.195,3.229c-6.02,2.229-9.083,3.197-15.294,4.832c-2.726-10.367-5.454-20.731-8.182-31.102
			c4.998-1.315,7.466-2.096,12.311-3.89c0.479,1.293,0.721,1.94,1.199,3.232c-3.163,1.172-4.766,1.706-7.994,2.68
			c1.192,3.956,1.788,5.938,2.978,9.898c2.483-0.747,3.716-1.15,6.163-2.008c0.458,1.301,0.682,1.949,1.139,3.25
			C287.658,374.098,286.396,374.508,283.855,375.273z"/>
		<path fill="#FFFFFF" d="M296.422,359.55c4.063,9.303,6.092,13.95,10.152,23.255c-2.14,0.932-3.217,1.384-5.389,2.241
			c-3.94-9.969-7.884-19.937-11.819-29.91c2.417-0.956,3.615-1.46,5.983-2.534c5.766,8.204,8.798,12.22,15.157,20.059
			c-2.39-9.809-3.748-14.655-6.79-24.207c2.294-1.24,3.425-1.89,5.659-3.244c5.563,9.164,11.115,18.334,16.672,27.499
			c-2.009,1.217-3.025,1.809-5.069,2.951c-4.948-8.863-7.424-13.293-12.373-22.154c3.218,9.828,4.666,14.816,7.213,24.916
			c-1.563,0.802-2.348,1.192-3.932,1.949C305.392,372.229,302.295,368.06,296.422,359.55z"/>
		<path fill="#FFFFFF" d="M334.189,339.646c3.058,3.522,4.587,5.285,7.644,8.811c4.232,4.881,4.802,10.195-1.926,15.259
			c-6.781,5.104-11.571,3.085-15.14-2.408c-2.543-3.913-3.813-5.869-6.355-9.781c-3.569-5.488-3.664-9.931,1.769-14.023
			C325.573,333.445,329.955,334.767,334.189,339.646z M321.982,347.729c3.208,4.57,4.809,6.858,8.017,11.429
			c1.979,2.82,4.178,4.15,7.646,1.539c3.467-2.609,2.804-5.095,0.642-7.78c-3.507-4.345-5.256-6.523-8.763-10.87
			c-2.163-2.682-4.149-3.739-7.076-1.535C319.526,342.713,320.002,344.909,321.982,347.729z"/>
	</g>
</g>
<text transform="matrix(0.8352 0.5499 -0.5499 0.8352 150.1538 361.54)" fill="#FFFFFF" font-family="'Montserrat-Regular'" font-size="48">4</text>
</svg>
