<?xml version="1.0" encoding="utf-8"?>
<!-- Generator: Adobe Illustrator 16.0.3, SVG Export Plug-In . SVG Version: 6.00 Build 0)  -->
<!DOCTYPE svg PUBLIC "-//W3C//DTD SVG 1.1//EN" "http://www.w3.org/Graphics/SVG/1.1/DTD/svg11.dtd">
<svg version="1.1" id="Layer_1" xmlns="http://www.w3.org/2000/svg" xmlns:xlink="http://www.w3.org/1999/xlink" x="0px" y="0px"
	 width="500px" height="500px" viewBox="0 0 500 500" enable-background="new 0 0 500 500" xml:space="preserve">
<polygon fill="#AB4E5A" points="84.048,299.231 84.048,322.498 60.074,309.898 61.105,288.147 "/>
<polygon fill="#AB4E5A" points="415.761,203.137 415.761,179.871 439.734,192.471 438.702,214.22 "/>
<path fill="#F5989D" stroke="#FFFFFF" stroke-miterlimit="10" d="M60.594,309.182l23.454,12.599H22.651l22.166-64.517
	c0,0-16.041-47.833-16.041-49c0-1.167,31.818-2.042,31.818-2.042V309.182z"/>
<path fill="#F5989D" stroke="#FFFFFF" stroke-miterlimit="10" d="M438.073,190.954l-23.454-12.599h61.4l-22.169,64.516
	c0,0,16.044,47.833,16.044,49c0,1.168-31.821,2.043-31.821,2.043V190.954z"/>
<g>
	<polygon fill="#F27180" points="431.337,249.963 415.647,273.886 424.01,301.249 402.196,319.765 402.46,348.374 376.308,359.979 
		368.523,387.511 340.166,391.316 324.96,415.555 296.685,411.2 275.235,430.133 249.336,417.963 223.437,430.133 201.987,411.2 
		173.71,415.555 158.504,391.316 130.147,387.511 122.364,359.979 96.21,348.374 96.475,319.766 74.663,301.249 83.024,273.887 
		67.335,249.963 83.025,226.04 74.663,198.676 96.476,180.161 96.211,151.552 122.365,139.948 130.148,112.415 158.505,108.609 
		173.711,84.372 201.988,88.726 223.437,69.792 249.336,81.963 275.234,69.792 296.685,88.726 324.962,84.373 340.167,108.61 
		368.523,112.416 376.308,139.948 402.461,151.553 402.196,180.162 424.008,198.677 415.647,226.04 	"/>
</g>
<circle fill="none" stroke="#AB4E5A" stroke-miterlimit="10" cx="249.336" cy="250.54" r="102.376"/>
<path fill="none" stroke="#AB4E5A" stroke-miterlimit="10" d="M403.949,250.912c0,85.534-69.337,154.875-154.876,154.875
	c-85.533,0-154.874-69.341-154.874-154.875c0-85.535,69.341-154.876,154.874-154.876
	C334.612,96.036,403.949,165.377,403.949,250.912z"/>
<path fill="none" stroke="#FFFFFF" stroke-miterlimit="10" d="M97.494,218.873c17.62-83.701,99.759-137.27,183.456-119.65"/>
<rect x="60.074" y="190.954" fill="#F5989D" stroke="#FFFFFF" stroke-miterlimit="10" width="377.999" height="117.688"/>
<g>
	<path fill="#FFFFFF" d="M148.15,289.607c8.714-0.42,10.5-2.729,13.125-17.43l10.08-58.062
		c-28.664,2.415-44.938,12.705-44.938,28.874c0,3.78,1.47,6.93,3.78,9.24c5.985,5.774,16.904,5.354,17.009,5.249v2.205
		c-6.825,0-13.754-1.365-18.374-5.88c-2.94-2.729-4.41-6.404-4.41-10.814c0-20.054,21.839-31.394,60.057-31.394
		c25.304,0,32.864,7.665,32.864,18.374c0,11.13-9.029,19.109-20.789,23.204c18.269,37.903,19.634,39.794,26.879,39.794
		c4.305,0,8.084-2.835,9.45-7.561h2.625c-1.995,6.51-6.51,10.92-16.484,10.92c-11.445,0-18.06-5.564-22.784-15.854l-11.339-24.568
		c-2.1,0.21-4.095,0.42-6.195,0.42c-0.735,3.779-1.26,7.56-1.995,11.024c-2.94,15.959-16.799,24.254-28.559,24.254V289.607z
		 M185.424,213.591l-6.3,40.423c20.159-0.524,35.488-11.549,35.488-24.044C214.612,219.68,205.268,213.801,185.424,213.591z"/>
	<path fill="#FFFFFF" d="M246.536,234.695c10.92,0,16.484,5.985,16.484,15.119c0,15.33-8.189,26.669-24.674,26.669
		c-11.025,0-16.484-5.985-16.484-15.12C221.862,248.659,226.377,234.695,246.536,234.695z M251.156,245.509
		c0-5.67-1.155-8.82-4.725-8.82c-5.88,0-12.705,10.71-12.705,28.979c0,6.614,2.31,8.399,4.83,8.399
		C245.066,274.068,251.156,261.259,251.156,245.509z"/>
	<path fill="#FFFFFF" d="M298.825,240.575c1.47,0,1.68,0.21,2.415,0.42c-1.26-2.31-4.305-3.675-7.35-3.675
		c-6.51,0-13.965,7.875-13.965,27.508c0,6.72,3.57,9.24,7.665,9.24c11.129,0,14.909-12.18,14.909-12.285l1.89,0.841
		c0,0-2.835,13.859-19.109,13.859c-11.549,0-17.219-5.985-17.219-15.12c0-16.904,9.135-26.668,23.204-26.668
		c9.869,0,15.015,5.565,15.015,13.334c0,5.354-3.885,7.77-7.455,7.77c-4.2,0-7.56-3.359-7.56-7.56
		C291.266,244.04,294.625,240.575,298.825,240.575z"/>
	<path fill="#FFFFFF" d="M353.11,271.443l1.574,1.26c0,0-1.994,3.78-8.819,3.78c-17.534,0-10.709-19.529-20.054-21.21
		c-1.785,9.66-2.835,14.91-3.78,20.265h-12.494l11.864-65.938c-2.1,0.21-3.885,1.26-5.25,2.94l-1.575-1.26
		c1.995-2.415,4.726-3.78,7.875-3.78c6.51,0,10.08,3.36,10.08,9.239c0,0.84-0.105,1.785-0.21,2.73c0,0-2.415,13.334-5.25,28.769
		c3.465-8.61,10.395-13.544,19.004-13.544c6.51,0,9.135,3.675,9.135,7.875s-2.939,7.35-7.14,7.35c-4.62,0-6.72-2.939-6.72-6.405
		c0-4.515,2.1-6.089,2.52-6.404c-7.244,0.84-12.494,6.72-16.064,14.91c0.735-0.105,1.471-0.211,2.521-0.211
		c20.159,0,10.185,21.63,19.004,21.63C352.061,273.438,353.11,271.443,353.11,271.443z"/>
</g>
<line fill="none" stroke="#AB4E5A" stroke-miterlimit="10" x1="84.048" y1="308.642" x2="438.073" y2="308.642"/>
<line fill="none" stroke="#AB4E5A" stroke-miterlimit="10" x1="438.073" y1="309.479" x2="438.073" y2="293.072"/>
<g>
	<g>
		<path fill="#FFFFFF" d="M153.479,163.083c6.207,2.921,9.238,4.49,15.135,7.825c-1.393,1.262-2.079,1.905-3.43,3.217
			c-5.532-2.952-8.364-4.342-14.146-6.942c-1.097,1.143-1.639,1.722-2.708,2.896c4.415,4.021,6.622,6.031,11.036,10.053
			c-1.285,1.411-1.915,2.13-3.154,3.59c-8.173-6.936-16.345-13.872-24.518-20.808c1.914-2.255,2.894-3.359,4.896-5.519
			c5.71-6.16,10.86-7.691,15.191-2.995C154.347,157.183,155.007,160.229,153.479,163.083z M139.117,159.736
			c-0.392,0.423-0.588,0.637-0.977,1.063c3.056,2.784,4.585,4.174,7.641,6.958c0.365-0.4,0.548-0.599,0.916-0.996
			c2.974-3.208,3.697-5.855,1.061-8.522S142.289,156.314,139.117,159.736z"/>
		<path fill="#FFFFFF" d="M171.522,140.736c2.612,3.866,3.917,5.798,6.53,9.665c3.617,5.353,3.911,10.048-1.37,14.153
			c-5.324,4.138-9.72,2.749-14.076-2.142c-3.103-3.484-4.654-5.227-7.757-8.71c-4.356-4.891-4.905-9.908,1.701-15.045
			C163.103,133.561,167.905,135.383,171.522,140.736z M158.276,149.237c3.567,4.296,5.352,6.445,8.919,10.741
			c2.201,2.65,4.311,3.825,7.173,1.6s2.239-4.556,0.213-7.342c-3.284-4.517-4.926-6.774-8.21-11.292
			c-2.026-2.787-4.129-3.938-7.509-1.311S156.075,146.586,158.276,149.237z"/>
		<path fill="#FFFFFF" d="M193.387,128.369c1.968,4.23,2.952,6.347,4.92,10.577c2.724,5.857,2.271,10.541-3.569,13.745
			c-5.888,3.23-9.989,1.147-13.514-4.373c-2.511-3.932-3.767-5.898-6.278-9.831c-3.525-5.521-3.294-10.545,4.014-14.554
			C186.208,119.957,190.662,122.512,193.387,128.369z M179.011,134.641c2.842,4.808,4.262,7.212,7.104,12.02
			c1.753,2.966,3.645,4.463,6.811,2.727s2.918-4.136,1.358-7.208c-2.528-4.979-3.791-7.471-6.319-12.45
			c-1.56-3.072-3.455-4.542-7.193-2.491S177.257,131.674,179.011,134.641z"/>
		<path fill="#FFFFFF" d="M201.576,121.213c3.678,9.459,5.517,14.189,9.195,23.649c-1.753,0.681-2.624,1.037-4.351,1.778
			c-4.229-9.849-8.45-19.701-12.678-29.551c2.952-1.266,4.443-1.865,7.455-2.99c5.608,8.417,8.263,12.705,13.261,21.416
			c-1.259-9.964-1.723-14.988-2.314-25.085c3.089-0.919,4.647-1.342,7.785-2.114c2.562,10.409,5.12,20.818,7.681,31.227
			c-1.836,0.452-2.75,0.693-4.565,1.207c-2.764-9.766-4.145-14.648-6.909-24.414c0.61,10.375,1.091,15.536,2.396,25.776
			c-1.346,0.432-2.015,0.656-3.348,1.122C210.057,134.273,207.333,129.864,201.576,121.213z"/>
		<path fill="#FFFFFF" d="M235.235,108.78c-2.756,0.421-4.024,1.996-3.637,4.15c0.353,1.961,1.862,3.256,3.5,4.009
			c2.995,1.377,4.459,2.102,7.322,3.617c2.932,1.572,5.705,4.229,6.041,8.324c0.39,4.757-2.727,7.716-7.666,8.426
			c-6.15,0.885-9.774-2.212-11.325-7.623c1.879-0.875,2.831-1.298,4.76-2.111c0.765,3.235,2.369,6.531,6.029,6.004
			c2.415-0.347,3.5-1.614,3.232-3.895c-0.336-2.869-2.48-4.135-4.542-5.198c-2.835-1.449-4.286-2.141-7.252-3.451
			c-2.542-1.091-4.807-3.201-5.527-6.534c-1.007-4.665,2.379-8.51,8.497-9.444c7.208-1.102,11.484,1.797,12.414,6.96
			c-2.208,0.642-3.302,0.98-5.463,1.696C241.023,110.708,239.26,108.166,235.235,108.78z"/>
	</g>
</g>
<g>
	<g>
		<path fill="#FFFFFF" d="M304.263,122.52c-2.762-1.193-4.161-1.75-6.998-2.782c-3.2,8.792-6.392,17.586-9.592,26.377
			c-1.77-0.644-2.662-0.945-4.467-1.506c2.778-8.934,5.551-17.869,8.33-26.803c-2.892-0.899-4.356-1.306-7.312-2.036
			c0.392-1.589,0.588-2.384,0.979-3.973c8.539,2.108,12.699,3.517,20.68,6.966C305.235,120.266,304.911,121.018,304.263,122.52z"/>
		<path fill="#FFFFFF" d="M306.277,138.004c-2.746,5.303-4.116,7.956-6.862,13.258c-1.663-0.86-2.504-1.271-4.208-2.054
			c4.474-9.74,8.948-19.48,13.422-29.221c2.255,1.036,3.37,1.582,5.569,2.721c-2.533,4.895-3.8,7.342-6.334,12.237
			c3.446,1.785,5.132,2.746,8.414,4.804c2.929-4.67,4.392-7.006,7.319-11.675c2.096,1.314,3.127,1.997,5.158,3.407
			c-6.115,8.802-12.229,17.605-18.344,26.409c-1.534-1.066-2.313-1.582-3.896-2.575c3.172-5.059,4.756-7.588,7.929-12.647
			C311.258,140.671,309.623,139.737,306.277,138.004z"/>
		<path fill="#FFFFFF" d="M316.122,162.168c-1.455-1.174-2.195-1.744-3.703-2.848c8.539-7.202,17.128-13.8,26.279-20.207
			c1.89,1.599,2.815,2.42,4.63,4.109c-5.276,9.845-10.805,19.168-16.929,28.508c-1.281-1.374-1.939-2.044-3.281-3.353
			c1.741-2.793,2.589-4.207,4.24-7.069c-1.843-1.734-2.788-2.575-4.727-4.196C319.987,159.095,318.686,160.106,316.122,162.168z
			 M336.462,146.292c-4.538,3.343-6.764,5.063-11.121,8.597c1.593,1.348,2.374,2.042,3.903,3.465
			C332.234,153.607,333.68,151.193,336.462,146.292z"/>
		<path fill="#FFFFFF" d="M358.439,166.876c-1.735-2.501-2.639-3.722-4.51-6.104c-7.355,5.78-14.71,11.561-22.065,17.341
			c-1.167-1.485-1.768-2.213-3-3.637c7.071-6.125,14.147-12.245,21.22-18.368c-1.975-2.282-2.994-3.393-5.094-5.547
			c1.172-1.142,1.757-1.712,2.929-2.854c6.066,6.225,8.867,9.609,13.882,16.836C360.457,165.478,359.783,165.944,358.439,166.876z"
			/>
	</g>
</g>
<g>
	<g>
		<path fill="#FFFFFF" d="M172.9,335.846c-3.079,2.759-4.619,4.137-7.698,6.896c1.854,2.07,2.818,3.067,4.813,4.983
			c-0.955,0.993-1.434,1.491-2.388,2.484c-2.068-1.988-3.068-3.023-4.991-5.17c-4.448,3.984-6.672,5.975-11.12,9.959
			c-1.778-1.985-2.639-3.006-4.302-5.104c8.401-6.655,16.798-13.315,25.197-19.972c3.249,4.098,5.038,6.001,8.873,9.471
			c-0.925,1.021-1.388,1.533-2.313,2.555C176.424,339.643,175.207,338.42,172.9,335.846z"/>
		<path fill="#FFFFFF" d="M192.591,359.612c-2.18,4.126-3.269,6.188-5.449,10.313c-3.018,5.712-8.14,8.145-15.9,2.826
			c-7.823-5.361-7.408-10.916-3.11-15.858c3.062-3.521,4.592-5.278,7.654-8.799c4.298-4.942,8.486-6.181,14-2.399
			C195.257,349.445,195.608,353.9,192.591,359.612z M180.586,350.538c-3.407,4.425-5.11,6.637-8.517,11.062
			c-2.102,2.729-2.65,5.335,1.304,8.045s6.183,1.258,7.97-1.688c2.898-4.773,4.348-7.16,7.245-11.935
			c1.788-2.945,2.092-5.146-0.932-7.22S182.688,347.809,180.586,350.538z"/>
		<path fill="#FFFFFF" d="M208.184,372.215c0.705,6.887,1.28,10.355,2.89,17.271c-2.599-0.553-3.887-0.866-6.436-1.569
			c-1.002-6.47-1.313-9.7-1.571-16.1c-1.63-0.558-2.436-0.854-4.036-1.483c-2.184,5.558-3.278,8.338-5.462,13.895
			c-2.465-0.969-3.682-1.49-6.081-2.602c4.508-9.724,9.014-19.449,13.522-29.173c2.128,0.987,3.213,1.44,5.415,2.268
			c6.279,2.359,9.677,5.227,8.255,11.454C213.837,369.867,211.636,372.188,208.184,372.215z M205.214,357.945
			c-0.459-0.173-0.688-0.258-1.145-0.438c-1.512,3.848-2.27,5.771-3.781,9.619c0.514,0.202,0.773,0.3,1.291,0.494
			c4.185,1.572,6.963,0.833,8.016-2.766S208.931,359.342,205.214,357.945z"/>
	</g>
</g>
<g>
	<g>
		<path fill="#FFFFFF" d="M264.462,394.153c-8.811,1.292-11.718-3.637-12.246-10.524c-0.28-3.657-0.421-5.485-0.701-9.143
			c-0.527-6.888,1.128-11.751,8.188-12.786c6.622-0.971,9.563,2.535,10.923,8.85c-1.995,0.43-2.998,0.628-5.013,0.987
			c-0.687-3.852-1.327-6.701-5.365-6.109c-4.037,0.592-4.131,3.539-3.691,7.426c0.516,4.564,0.773,6.848,1.29,11.412
			c0.396,3.494,1.71,6.798,6.07,6.158c4.384-0.643,4.331-4.12,3.713-7.582c-0.081-0.452-0.12-0.676-0.201-1.128
			c2.16-0.385,3.235-0.599,5.375-1.06c0.097,0.449,0.145,0.675,0.241,1.124C274.391,388.022,272.678,392.948,264.462,394.153z"/>
		<path fill="#FFFFFF" d="M280.703,375.158c1.602,5.754,2.399,8.63,4.001,14.382c-2.259,0.629-3.394,0.925-5.678,1.474
			c-2.506-10.422-5.01-20.844-7.514-31.266c1.839-0.442,2.754-0.677,4.572-1.184c1.478,5.31,2.216,7.964,3.694,13.274
			c3.513-0.978,5.25-1.52,8.687-2.711c-1.806-5.209-2.706-7.814-4.512-13.022c1.778-0.617,2.662-0.942,4.416-1.621
			c3.866,9.998,7.734,19.995,11.601,29.993c-2.18,0.843-3.28,1.244-5.49,2.01c-1.955-5.641-2.932-8.462-4.888-14.105
			C286.076,373.602,284.298,374.157,280.703,375.158z"/>
		<path fill="#FFFFFF" d="M304.343,366.372c1.956,4.156,2.937,6.235,4.893,10.392c3.618-1.703,5.401-2.609,8.907-4.533
			c0.663,1.208,0.993,1.811,1.656,3.019c-5.627,3.088-8.516,4.496-14.419,7.024c-4.218-9.854-8.439-19.707-12.659-29.561
			c4.751-2.035,7.078-3.169,11.607-5.654c0.663,1.208,0.997,1.812,1.66,3.02c-2.957,1.623-4.462,2.387-7.514,3.824
			c1.761,3.74,2.641,5.614,4.401,9.355c2.346-1.104,3.507-1.684,5.801-2.891c0.642,1.22,0.961,1.828,1.603,3.048
			C307.932,364.65,306.743,365.242,304.343,366.372z"/>
		<path fill="#FFFFFF" d="M314.465,348.975c5.384,8.604,8.074,12.904,13.456,21.509c-1.98,1.238-2.98,1.842-5.002,3.009
			c-5.361-9.282-10.724-18.564-16.081-27.85c2.25-1.3,3.361-1.975,5.547-3.384c6.906,7.266,10.496,10.796,17.938,17.615
			c-3.805-9.351-5.862-13.946-10.272-22.948c2.086-1.563,3.11-2.371,5.122-4.039c6.847,8.248,13.684,16.504,20.527,24.754
			c-1.808,1.499-2.725,2.233-4.581,3.664c-6.195-8.041-9.295-12.061-15.491-20.099c4.626,9.249,6.791,13.971,10.793,23.588
			c-1.428,1.021-2.149,1.523-3.602,2.505C325.198,360.198,321.523,356.529,314.465,348.975z"/>
		<path fill="#FFFFFF" d="M348.902,323.741c3.542,3.036,5.313,4.556,8.854,7.594c4.903,4.206,6.246,9.38,0.335,15.375
			c-5.959,6.044-10.994,4.751-15.33-0.159c-3.089-3.497-4.633-5.246-7.722-8.742c-4.336-4.908-5.082-9.288-0.308-14.131
			C339.469,318.873,343.998,319.537,348.902,323.741z M338.013,333.529c3.844,4.051,5.765,6.078,9.608,10.129
			c2.371,2.499,4.742,3.492,7.789,0.402s2.025-5.454-0.508-7.79c-4.105-3.786-6.155-5.681-10.261-9.466
			c-2.533-2.335-4.654-3.09-7.224-0.483S335.641,331.03,338.013,333.529z"/>
	</g>
</g>
</svg>
