<?xml version="1.0" encoding="utf-8"?>
<!-- Generator: Adobe Illustrator 16.0.3, SVG Export Plug-In . SVG Version: 6.00 Build 0)  -->
<!DOCTYPE svg PUBLIC "-//W3C//DTD SVG 1.1//EN" "http://www.w3.org/Graphics/SVG/1.1/DTD/svg11.dtd">
<svg version="1.1" id="Layer_1" xmlns="http://www.w3.org/2000/svg" xmlns:xlink="http://www.w3.org/1999/xlink" x="0px" y="0px"
	 width="500px" height="500px" viewBox="0 0 500 500" enable-background="new 0 0 500 500" xml:space="preserve">
<path fill="#010101" d="M250.001,0L5.187,122.339V377.58L250.001,500l244.812-122.42V122.339L250.001,0z M29.238,137.202
	L243.037,27.84v216.545l-63.743,32.633V115.183l-84.597,41.267v163.857l-65.459,33.506V137.202z M104.799,312.598V162.763
	l64.394-31.415v149.596L104.799,312.598z M250.006,473.109L32.082,364.139l217.919-108.971l217.921,108.961L250.006,473.109z
	 M470.758,353.813L256.984,244.399V27.85l213.773,109.353V353.813z"/>
<g>
	<path fill="#010101" d="M405.59,243.016l-84.596-42.253v-82.384l84.596,41.267V243.016z M331.096,194.521l64.393,32.16v-60.722
		l-64.393-31.413V194.521z"/>
</g>
<g>
	<polygon fill="#010101" points="299.154,290.148 249.162,265.152 199.163,290.148 249.157,315.145 	"/>
	<polygon fill="#010101" points="249.162,365.145 299.154,340.15 249.162,315.145 199.461,339.992 149.748,315.145 99.748,340.141 
		149.748,365.137 199.451,340.287 	"/>
	<polygon fill="#010101" points="249.162,365.145 199.466,389.988 149.748,365.137 99.748,390.131 149.748,415.137 199.446,390.279 
		249.162,415.148 299.154,390.141 	"/>
	<polygon fill="#010101" points="249.162,465.141 299.154,440.145 249.162,415.148 199.163,440.145 	"/>
	<polygon fill="#010101" points="349.162,315.145 299.154,340.141 349.162,365.141 399.158,340.141 	"/>
	<polygon fill="#010101" points="299.154,390.137 349.162,415.143 399.158,390.137 349.162,365.141 	"/>
</g>
<path fill="none" stroke="#010101" stroke-width="2" d="M326.045,164.839"/>
<path fill="none" stroke="#010101" stroke-width="2" d="M400.539,201.177"/>
</svg>
