<?xml version="1.0" encoding="utf-8"?>
<!-- Generator: Adobe Illustrator 16.0.3, SVG Export Plug-In . SVG Version: 6.00 Build 0)  -->
<!DOCTYPE svg PUBLIC "-//W3C//DTD SVG 1.1//EN" "http://www.w3.org/Graphics/SVG/1.1/DTD/svg11.dtd">
<svg version="1.1" id="Layer_1" xmlns="http://www.w3.org/2000/svg" xmlns:xlink="http://www.w3.org/1999/xlink" x="0px" y="0px"
	 width="500px" height="500px" viewBox="0 0 500 500" enable-background="new 0 0 500 500" xml:space="preserve">
<path fill="#010101" d="M497.079,401.926L345.437,250.298l70.825-70.84c4.057,0.577,8.389-0.645,11.532-3.792l29.791-29.764
	c3.163-3.192,4.412-7.547,3.768-11.62l16.719-16.742c14.171-14.179,14.171-37.156,0-51.362l-43.882-43.904
	c-14.176-14.159-37.216-14.159-51.396,0l-16.495,16.464c-4.242-0.859-8.849,0.362-12.177,3.683L324.34,72.212
	c-3.298,3.275-4.527,7.89-3.707,12.132l-70.565,70.59L98.188,3.029c-3.818-3.771-9.956-3.771-13.754,0L2.756,84.759
	c-3.772,3.77-3.772,9.931,0,13.726l19.198,19.188l34.118-34.138c1.664-1.637,4.355-1.637,6.011,0c1.659,1.684,1.659,4.375,0,6.019
	l-34.138,34.133l19.33,19.33l34.121-34.133c1.656-1.664,4.353-1.664,6.011,0c1.664,1.659,1.664,4.354,0,6.011l-34.118,34.141
	l19.31,19.305l34.118-34.138c1.684-1.664,4.37-1.664,6.011,0c1.664,1.656,1.664,4.352,0,6.011L78.61,174.352l19.313,19.31
	l34.118-34.138c1.662-1.659,4.352-1.659,6.031,0c1.639,1.656,1.639,4.355,0,6.016l-34.138,34.116l19.31,19.31l56.039-55.994
	c1.657-1.676,4.355-1.676,5.991,0c1.664,1.644,1.664,4.335,0,6.014l-56.006,55.992l19.31,19.31l34.138-34.118
	c1.659-1.659,4.334-1.659,6.011,0c1.659,1.639,1.659,4.36,0,5.991L45.209,359.788h0.02c-4.375,4.393-6.616,10.129-6.596,15.925
	l0.322,70.565c0.518,3.707,2.176,7.325,5.042,10.213c2.886,2.908,6.528,4.572,10.238,5.062l70.545,0.305
	c5.776,0.021,11.548-2.178,15.947-6.57l166.264-166.474c1.579-0.819,3.598-0.579,4.937,0.755c1.659,1.679,1.659,4.372,0,6.016
	l-56.039,56.015l19.313,19.313l34.163-34.123c1.654-1.654,4.353-1.654,5.986,0c1.664,1.664,1.664,4.357,0,6.016l-34.113,34.124
	l19.308,19.332l34.118-34.143c1.659-1.659,4.357-1.659,6.036,0c1.629,1.674,1.629,4.352,0,6.016l-34.143,34.133l19.313,19.309
	l34.138-34.139c1.659-1.654,4.333-1.654,6.017,0c1.659,1.689,1.659,4.357,0,6.036l-34.139,34.123l19.309,19.303l34.138-34.138
	c1.659-1.659,4.357-1.659,6.006,0c1.669,1.658,1.669,4.361,0,6.036l-34.128,34.118l19.303,19.308l56.034-56.005
	c1.664-1.658,4.362-1.658,6.017,0c1.658,1.649,1.658,4.348,0,6.012l-56.01,56.009l19.118,19.118c3.792,3.792,9.934,3.792,13.73,0
	l81.678-81.678C500.877,411.859,500.877,405.734,497.079,401.926z M395.165,36.79c6.501-6.521,17.089-6.521,23.59,0l22.251,22.23
	L415.462,84.54l-34.009-34.053L395.165,36.79z M367.508,59.216c2.063-2.074,5.432-2.074,7.524,0l32.885,32.889
	c2.048,2.094,2.048,5.452-0.04,7.522c-2.069,2.066-5.437,2.066-7.496,0l-0.029,0.021l-32.669-32.674h0.085
	c-0.085-0.107-0.175-0.155-0.26-0.237C365.419,64.649,365.419,61.309,367.508,59.216z M340.77,85.966
	c2.063-2.071,5.432-2.071,7.516,0c0.09,0.063,0.13,0.147,0.209,0.255l0.035-0.02l32.649,32.629c2.063,2.094,2.063,5.454,0,7.522
	c-2.113,2.086-5.451,2.086-7.55,0l-0.021,0.04L340.63,93.416c0-0.02,0.03-0.02,0.05-0.063
	C338.691,91.308,338.711,87.992,340.77,85.966z M70.538,430.698l-14.139-14.142l0.127-35.906c6.381,5.216,14.204,7.795,22.028,7.845
	c0.02,8.774,3.315,17.519,9.896,24.304L70.538,430.698z M98.665,401.496c-7.738-6.855-7.025-19.188,0.992-27.217l215.13-215.313
	c2.068-2.049,2.068-5.454,0-7.503c-2.059-2.066-5.451-2.066-7.525,0L92.154,366.749c-8.145,8.104-20.692,8.774-27.522,0.759
	l267.234-267.451l34.033,34.058L98.665,401.496z"/>
</svg>
