<?xml version="1.0" encoding="utf-8"?>
<!-- Generator: Adobe Illustrator 16.0.3, SVG Export Plug-In . SVG Version: 6.00 Build 0)  -->
<!DOCTYPE svg PUBLIC "-//W3C//DTD SVG 1.1//EN" "http://www.w3.org/Graphics/SVG/1.1/DTD/svg11.dtd">
<svg version="1.1" id="Layer_1" xmlns="http://www.w3.org/2000/svg" xmlns:xlink="http://www.w3.org/1999/xlink" x="0px" y="0px"
	 width="500px" height="500px" viewBox="0 0 500 500" enable-background="new 0 0 500 500" xml:space="preserve">
<g>
	<path fill="#010101" d="M249.971,0C111.924,0,0,111.919,0,250c0,138.047,111.924,250,249.971,250C388.057,500,500,388.047,500,250
		C500,111.919,388.057,0,249.971,0z M249.971,431.899c-100.461,0-181.875-81.445-181.875-181.899S149.509,68.101,249.971,68.101
		C350.43,68.101,431.87,149.546,431.87,250S350.43,431.899,249.971,431.899z"/>
	<path fill="#010101" d="M203.87,225.901c0-22.112-17.9-40.012-40.005-40.012c-22.07,0-39.971,17.9-39.971,40.012
		c0,22.085,17.9,39.983,39.971,39.983C185.969,265.884,203.87,247.986,203.87,225.901z"/>
	<path fill="#010101" d="M336.094,185.889c-22.095,0-40,17.9-40,40.012c0,22.085,17.905,39.983,40,39.983
		c22.109,0,40.02-17.898,40.02-39.983C376.113,203.789,358.203,185.889,336.094,185.889z"/>
	<path fill="#010101" d="M250,390.068c49.707,0,91.411-33.945,103.408-79.907H146.58C158.596,356.123,200.259,390.068,250,390.068z"
		/>
</g>
</svg>
