<?xml version="1.0" encoding="utf-8"?>
<!-- Generator: Adobe Illustrator 16.0.3, SVG Export Plug-In . SVG Version: 6.00 Build 0)  -->
<!DOCTYPE svg PUBLIC "-//W3C//DTD SVG 1.1//EN" "http://www.w3.org/Graphics/SVG/1.1/DTD/svg11.dtd">
<svg version="1.1" id="Layer_1" xmlns="http://www.w3.org/2000/svg" xmlns:xlink="http://www.w3.org/1999/xlink" x="0px" y="0px"
	 width="220px" height="220px" viewBox="0 0 220 220" enable-background="new 0 0 220 220" xml:space="preserve">
<g>
	<polygon fill="#F79664" points="217,110 202.064,123.248 212.689,140.15 194.62,148.641 200.021,167.859 180.288,170.9 
		180.072,190.865 160.279,188.251 154.463,207.352 136.211,199.258 125.223,215.924 110,203 94.777,215.924 83.788,199.257 
		65.537,207.352 59.72,188.252 39.927,190.865 39.711,170.9 19.978,167.859 25.38,148.641 7.309,140.15 17.936,123.248 3,110 
		17.936,96.753 7.309,79.85 25.38,71.361 19.979,52.141 39.712,49.1 39.928,29.135 59.721,31.749 65.538,12.649 83.788,20.744 
		94.777,4.076 110,17 125.223,4.076 136.212,20.744 154.463,12.649 160.279,31.75 180.072,29.136 180.288,49.101 200.021,52.142 
		194.62,71.362 212.689,79.85 202.064,96.753 	"/>
</g>
<path fill="#FFFFFF" d="M110,60.5L61.527,84.724v50.538L110,159.5l48.473-24.238V84.724L110,60.5z M66.289,87.666l42.332-21.653
	v42.876L96,115.35V83.307l-16.75,8.171v32.444l-12.961,6.633V87.666z M81.25,122.395V92.728L94,86.507v29.62L81.25,122.395z
	 M110.001,154.176L66.853,132.6L110,111.023l43.148,21.574L110.001,154.176z M153.71,130.555l-42.327-21.663V66.015l42.327,21.651
	V130.555z"/>
<g>
	<path fill="#FFFFFF" d="M140.807,108.617l-16.75-8.366V83.939l16.75,8.171V108.617z M126.057,99.016l12.75,6.367V93.36l-12.75-6.22
		V99.016z"/>
</g>
<g>
	<polygon fill="#FFFFFF" points="119.732,117.949 109.834,113 99.935,117.949 109.833,122.898 	"/>
	<polygon fill="#FFFFFF" points="109.834,132.799 119.732,127.85 109.834,122.898 99.993,127.818 90.15,122.898 80.25,127.848 
		90.15,132.797 99.991,127.877 	"/>
	<polygon fill="#FFFFFF" points="109.834,132.799 99.994,137.719 90.15,132.797 80.25,137.746 90.15,142.697 99.99,137.775 
		109.834,142.699 119.732,137.748 	"/>
	<polygon fill="#FFFFFF" points="109.834,152.598 119.732,147.648 109.834,142.699 99.935,147.648 	"/>
	<polygon fill="#FFFFFF" points="129.634,122.898 119.732,127.848 129.634,132.799 139.533,127.848 	"/>
	<polygon fill="#FFFFFF" points="119.732,137.748 129.634,142.699 139.533,137.748 129.634,132.799 	"/>
</g>
<path fill="#FFFFFF" stroke="#010101" stroke-width="2" d="M125.057,93.139"/>
<path fill="#FFFFFF" stroke="#010101" stroke-width="2" d="M139.807,100.333"/>
</svg>
