<?xml version="1.0" encoding="utf-8"?>
<!-- Generator: Adobe Illustrator 16.0.3, SVG Export Plug-In . SVG Version: 6.00 Build 0)  -->
<!DOCTYPE svg PUBLIC "-//W3C//DTD SVG 1.1//EN" "http://www.w3.org/Graphics/SVG/1.1/DTD/svg11.dtd">
<svg version="1.1" id="Layer_1" xmlns="http://www.w3.org/2000/svg" xmlns:xlink="http://www.w3.org/1999/xlink" x="0px" y="0px"
	 width="220px" height="220px" viewBox="0 0 220 220" enable-background="new 0 0 220 220" xml:space="preserve">
<g>
	<polygon fill="#F79663" points="217,110 202.064,123.248 212.689,140.15 194.62,148.641 200.021,167.859 180.288,170.9 
		180.072,190.865 160.279,188.251 154.463,207.352 136.211,199.258 125.223,215.924 110,203 94.777,215.924 83.788,199.257 
		65.537,207.352 59.72,188.252 39.927,190.865 39.711,170.9 19.978,167.859 25.38,148.641 7.309,140.15 17.936,123.248 3,110 
		17.936,96.753 7.309,79.85 25.38,71.361 19.979,52.141 39.712,49.1 39.928,29.135 59.721,31.749 65.538,12.649 83.788,20.744 
		94.777,4.076 110,17 125.223,4.076 136.212,20.744 154.463,12.649 160.279,31.75 180.072,29.136 180.288,49.101 200.021,52.142 
		194.62,71.362 212.689,79.85 202.064,96.753 	"/>
</g>
<path fill="#FFFFFF" d="M157.128,145.164l-5.094-5.1c-0.03-0.029-0.07-0.043-0.103-0.068c-0.024-0.03-0.035-0.066-0.063-0.094
	l-29.88-29.908l24.101-24.121c0.017-0.014,0.021-0.033,0.03-0.046c0.061-0.07,0.109-0.148,0.152-0.232
	c0.043-0.073,0.082-0.141,0.107-0.219l7.664-18.048c0.206-0.483,0.096-1.041-0.277-1.409c-0.375-0.369-0.937-0.469-1.414-0.255
	L134.6,73.579c-0.078,0.026-0.147,0.07-0.222,0.111c-0.085,0.043-0.163,0.094-0.231,0.154c-0.017,0.012-0.032,0.017-0.049,0.031
	L110,97.995l-3.584-3.587l-4.699-4.703l4.085-4.085c0.239-0.239,0.373-0.563,0.373-0.902c0-0.337-0.135-0.662-0.373-0.902
	L87.443,65.439c-0.498-0.498-1.304-0.498-1.802,0l-4.084,4.088l-4.697-4.703c-0.478-0.478-1.324-0.478-1.802,0L64.873,75.021
	c-0.497,0.498-0.497,1.305,0,1.803l5.591,5.596c0.002,0.002,0.002,0.006,0.004,0.008l23.96,23.981
	c0.002,0.002,0.005,0.002,0.007,0.004l3.579,3.583l-28.545,28.566l-4.503,4.508c-0.24,0.238-0.374,0.563-0.374,0.898
	c0,0.344,0.135,0.663,0.374,0.903l10.187,10.188c0.25,0.25,0.575,0.375,0.901,0.375c0.326,0,0.652-0.125,0.901-0.375l4.503-4.504
	c0.002-0.002,0.003-0.006,0.006-0.008L110,121.993l29.881,29.907c0.028,0.024,0.066,0.039,0.098,0.063
	c0.022,0.029,0.037,0.068,0.063,0.098l5.095,5.1c0.252,0.249,0.574,0.373,0.9,0.373c0.328,0,0.652-0.125,0.9-0.373l10.189-10.193
	c0.238-0.24,0.371-0.563,0.371-0.902C157.5,145.729,157.366,145.402,157.128,145.164z M80.557,147.854l-2.171-2.174l62.795-62.851
	l2.174,2.175L80.557,147.854z M134.968,76.613l2.175,2.174l-62.795,62.852l-2.173-2.175L134.968,76.613z M147.814,75.488
	l-3.072,7.233l-7.516-7.521l7.125-3.176L147.814,75.488z M73.173,81.524l8.384-8.395l22.161,22.18l-8.388,8.392L73.173,81.524z
	 M99.917,87.902l-2.006-2.009l3.181-3.187l2.009,2.011L99.917,87.902z M86.544,68.145l13.648,13.661l-3.181,3.187L83.36,71.33
	L86.544,68.145z M75.961,67.53l3.81,3.813l-8.397,8.38l-3.799-3.8L75.961,67.53z M97.13,105.505l8.388-8.392l2.682,2.684
	l-8.385,8.394L97.13,105.505z M67.67,143.971l2.701-2.703l8.385,8.395l-2.701,2.699L67.67,143.971z M120.188,111.796l28.979,29.009
	l-8.385,8.395l-28.979-29.01L120.188,111.796z M146.037,154.455l-3.292-3.294l8.389-8.394l3.291,3.297L146.037,154.455z"/>
</svg>
