<?xml version="1.0" encoding="utf-8"?>
<!-- Generator: Adobe Illustrator 16.0.3, SVG Export Plug-In . SVG Version: 6.00 Build 0)  -->
<!DOCTYPE svg PUBLIC "-//W3C//DTD SVG 1.1//EN" "http://www.w3.org/Graphics/SVG/1.1/DTD/svg11.dtd">
<svg version="1.1" id="Layer_1" xmlns="http://www.w3.org/2000/svg" xmlns:xlink="http://www.w3.org/1999/xlink" x="0px" y="0px"
	 width="220px" height="220px" viewBox="0 0 220 220" enable-background="new 0 0 220 220" xml:space="preserve">
<g>
	<polygon fill="#F5989D" points="217,110 202.064,123.248 212.69,140.151 194.62,148.64 200.021,167.86 180.288,170.901 
		180.072,190.865 160.279,188.251 154.463,207.352 136.211,199.258 125.222,215.924 110,203 94.777,215.924 83.788,199.257 
		65.537,207.351 59.72,188.252 39.927,190.865 39.711,170.9 19.978,167.859 25.38,148.64 7.309,140.15 17.936,123.248 3,110 
		17.936,96.753 7.309,79.85 25.38,71.361 19.979,52.141 39.712,49.1 39.928,29.135 59.721,31.749 65.538,12.649 83.788,20.744 
		94.777,4.076 110,17 125.222,4.076 136.212,20.744 154.463,12.649 160.279,31.75 180.072,29.136 180.288,49.101 200.021,52.142 
		194.62,71.362 212.69,79.85 202.064,96.753 	"/>
</g>
<g id="Your_Icon">
	<path fill="#FFFFFF" d="M110,135.377c-13.993,0-25.375-11.384-25.375-25.377S96.007,84.625,110,84.625
		c13.992,0,25.377,11.382,25.377,25.375C135.377,123.992,123.992,135.377,110,135.377z M110,92.053
		c-9.896,0-17.947,8.052-17.947,17.947c0,9.898,8.052,17.949,17.947,17.949c9.898,0,17.949-8.051,17.949-17.949
		C127.949,100.104,119.898,92.053,110,92.053z"/>
	<path fill="#FFFFFF" d="M110,78.76c-2.051,0-3.714-1.663-3.714-3.715V58.714c0-2.052,1.663-3.714,3.714-3.714
		c2.05,0,3.713,1.663,3.713,3.714v16.332C113.713,77.097,112.05,78.76,110,78.76z"/>
	<path fill="#FFFFFF" d="M85.283,88.997c-0.95,0-1.9-0.362-2.626-1.087L71.109,76.361c-1.451-1.451-1.451-3.801,0-5.251
		c1.451-1.451,3.8-1.451,5.251,0l11.548,11.547c1.451,1.451,1.451,3.801,0,5.252C87.184,88.635,86.234,88.997,85.283,88.997z"/>
	<path fill="#FFFFFF" d="M58.714,113.713C56.663,113.713,55,112.05,55,110s1.663-3.715,3.714-3.715h16.33
		c2.051,0,3.714,1.662,3.714,3.714c0,2.051-1.663,3.714-3.714,3.714H58.714z"/>
	<path fill="#FFFFFF" d="M73.735,149.979c-0.951,0-1.901-0.363-2.626-1.089c-1.451-1.448-1.451-3.802,0-5.252l11.546-11.55
		c1.451-1.45,3.801-1.45,5.251,0c1.451,1.45,1.451,3.802,0,5.252l-11.546,11.55C75.636,149.616,74.685,149.979,73.735,149.979z"/>
	<path fill="#FFFFFF" d="M110,165c-2.051,0-3.714-1.663-3.714-3.715l-0.003-16.328c0-2.05,1.662-3.713,3.714-3.713l0,0
		c2.051,0,3.714,1.663,3.714,3.713l0.002,16.328C113.713,163.337,112.053,165,110,165L110,165z"/>
	<path fill="#FFFFFF" d="M146.265,149.979c-0.95,0-1.9-0.363-2.626-1.089l-11.548-11.543c-1.45-1.451-1.45-3.802,0-5.252
		s3.802-1.451,5.252,0l11.548,11.543c1.45,1.449,1.45,3.802,0,5.252C148.166,149.616,147.215,149.979,146.265,149.979z"/>
	<path fill="#FFFFFF" d="M144.957,113.717c-2.05,0-3.713-1.662-3.713-3.713c0-2.052,1.66-3.715,3.713-3.715l16.328-0.002l0,0
		c2.052,0,3.715,1.663,3.715,3.714c0,2.052-1.663,3.714-3.715,3.714L144.957,113.717L144.957,113.717z"/>
	<path fill="#FFFFFF" d="M134.722,88.998c-0.951,0-1.901-0.362-2.626-1.087c-1.451-1.449-1.451-3.801-0.003-5.252l11.546-11.55
		c1.448-1.451,3.802-1.451,5.252,0c1.45,1.449,1.45,3.8,0.002,5.251l-11.545,11.55C136.622,88.636,135.672,88.998,134.722,88.998z"
		/>
</g>
</svg>
